<?xml version="1.0" encoding="UTF-8" standalone="no"?><!DOCTYPE svg PUBLIC "-//W3C//DTD SVG 1.1//EN" "http://www.w3.org/Graphics/SVG/1.1/DTD/svg11.dtd"><!-- Generated by graphviz version 2.40.1 (20161225.0304)
 --><!-- Title: G Pages: 1 --><svg xmlns="http://www.w3.org/2000/svg" xmlns:xlink="http://www.w3.org/1999/xlink" width="164pt" height="208pt" viewBox="0.00 0.00 164.38 208.28">
<g id="graph0" class="graph" transform="scale(1 1) rotate(0) translate(4 204.2842)">
<title>G</title>
<polygon fill="black" stroke="transparent" points="-4,4 -4,-204.2842 160.3834,-204.2842 160.3834,4 -4,4"/>
<!-- A -->
<g id="node1" class="node">
<title>A</title>
<ellipse fill="#d3d3d3" stroke="#d3d3d3" cx="57.4703" cy="-36.9916" rx="27" ry="18"/>
<text text-anchor="middle" x="57.4703" y="-32.7916" font-family="Times,serif" font-size="14.00" fill="#000000">A</text>
</g>
<!-- B -->
<g id="node2" class="node">
<title>B</title>
<ellipse fill="#d3d3d3" stroke="#d3d3d3" cx="129.3834" cy="-18" rx="27" ry="18"/>
<text text-anchor="middle" x="129.3834" y="-13.8" font-family="Times,serif" font-size="14.00" fill="#000000">B</text>
</g>
<!-- A&#45;&gt;B -->
<g id="edge1" class="edge">
<title>A-&gt;B</title>
<path fill="none" stroke="#ffffff" d="M82.622,-30.3492C86.4319,-29.3431 90.4201,-28.2898 94.3926,-27.2407"/>
<polygon fill="#ffffff" stroke="#ffffff" points="95.3495,-30.6081 104.1243,-24.6707 93.5621,-23.8401 95.3495,-30.6081"/>
</g>
<!-- C -->
<g id="node3" class="node">
<title>C</title>
<ellipse fill="#d3d3d3" stroke="#d3d3d3" cx="27" cy="-104.3674" rx="27" ry="18"/>
<text text-anchor="middle" x="27" y="-100.1674" font-family="Times,serif" font-size="14.00" fill="#000000">C</text>
</g>
<!-- A&#45;&gt;C -->
<g id="edge2" class="edge">
<title>A-&gt;C</title>
<path fill="none" stroke="#ffffff" d="M49.6234,-54.3425C46.4142,-61.4387 42.6279,-69.811 39.0803,-77.6555"/>
<polygon fill="#ffffff" stroke="#ffffff" points="35.8578,-76.2872 34.9262,-86.841 42.2359,-79.1717 35.8578,-76.2872"/>
</g>
<!-- D -->
<g id="node4" class="node">
<title>D</title>
<ellipse fill="#d3d3d3" stroke="#d3d3d3" cx="104.9515" cy="-88.7739" rx="27" ry="18"/>
<text text-anchor="middle" x="104.9515" y="-84.5739" font-family="Times,serif" font-size="14.00" fill="#000000">D</text>
</g>
<!-- B&#45;&gt;D -->
<g id="edge3" class="edge">
<title>B-&gt;D</title>
<path fill="none" stroke="#ffffff" d="M123.2182,-35.8592C120.5358,-43.6294 117.3328,-52.908 114.3634,-61.5097"/>
<polygon fill="#ffffff" stroke="#ffffff" points="110.9849,-60.5708 111.0301,-71.1655 117.6017,-62.855 110.9849,-60.5708"/>
</g>
<!-- C&#45;&gt;D -->
<g id="edge4" class="edge">
<title>C-&gt;D</title>
<path fill="none" stroke="#ffffff" d="M52.9567,-99.1749C58.0306,-98.16 63.4371,-97.0785 68.7732,-96.011"/>
<polygon fill="#ffffff" stroke="#ffffff" points="69.7232,-99.3904 78.8423,-93.9968 68.35,-92.5264 69.7232,-99.3904"/>
</g>
<!-- E -->
<g id="node6" class="node">
<title>E</title>
<ellipse fill="#d3d3d3" stroke="#d3d3d3" cx="38.616" cy="-182.2842" rx="27" ry="18"/>
<text text-anchor="middle" x="38.616" y="-178.0842" font-family="Times,serif" font-size="14.00" fill="#000000">E</text>
</g>
<!-- C&#45;&gt;E -->
<g id="edge7" class="edge">
<title>C-&gt;E</title>
<path fill="none" stroke="#ffffff" d="M29.6941,-122.4389C31.1016,-131.8796 32.8554,-143.6437 34.4347,-154.237"/>
<polygon fill="#ffffff" stroke="#ffffff" points="31.0001,-154.9361 35.9365,-164.3107 37.9236,-153.9039 31.0001,-154.9361"/>
</g>
<!-- D&#45;&gt;A -->
<g id="edge5" class="edge">
<title>D-&gt;A</title>
<path fill="none" stroke="#ffffff" d="M90.7056,-73.2375C86.8557,-69.0389 82.607,-64.4053 78.4707,-59.8944"/>
<polygon fill="#ffffff" stroke="#ffffff" points="81.0442,-57.5222 71.7062,-52.517 75.8848,-62.253 81.0442,-57.5222"/>
</g>
<!-- F -->
<g id="node5" class="node">
<title>F</title>
<ellipse fill="#d3d3d3" stroke="#d3d3d3" cx="115.8553" cy="-166.0226" rx="27" ry="18"/>
<text text-anchor="middle" x="115.8553" y="-161.8226" font-family="Times,serif" font-size="14.00" fill="#000000">F</text>
</g>
<!-- D&#45;&gt;F -->
<g id="edge6" class="edge">
<title>D-&gt;F</title>
<path fill="none" stroke="#ffffff" d="M107.5355,-107.0807C108.8256,-116.2201 110.4151,-127.4811 111.8579,-137.7032"/>
<polygon fill="#ffffff" stroke="#ffffff" points="108.4264,-138.4345 113.2898,-147.8471 115.3577,-137.4561 108.4264,-138.4345"/>
</g>
<!-- E&#45;&gt;F -->
<g id="edge8" class="edge">
<title>E-&gt;F</title>
<path fill="none" stroke="#ffffff" d="M64.7657,-176.7788C69.7262,-175.7344 74.9942,-174.6253 80.1904,-173.5313"/>
<polygon fill="#ffffff" stroke="#ffffff" points="80.9304,-176.9523 89.9947,-171.4671 79.4882,-170.1025 80.9304,-176.9523"/>
</g>
</g>
</svg>